<svg width="24" height="24" viewBox="0 0 24 24" fill="none" xmlns="http://www.w3.org/2000/svg">
<path d="M8.97526 10.4689H15.0735C15.3597 10.469 15.5181 10.6754 15.4255 10.9268L12.2004 19.8115C12.1079 20.0628 11.958 20.0628 11.8655 19.8115L8.62269 10.9224C8.53473 10.671 8.689 10.465 8.97526 10.465V10.4689Z" fill="#1C449C"/>
<path d="M7.5343 10.465C7.82069 10.465 8.12455 10.6712 8.21708 10.9268L11.2665 19.5186C11.3546 19.7701 11.2883 19.8031 11.1209 19.5887L4.16823 10.8523C3.99646 10.638 4.09328 10.465 4.3752 10.465H7.5343Z" fill="#1C449C"/>
<path d="M16.5228 10.4689H19.6819C19.9639 10.4689 20.0612 10.6423 19.8894 10.8567L12.9368 19.5887C12.7693 19.8031 12.7031 19.7701 12.7911 19.5186L15.84 10.9268C15.9325 10.6712 16.2365 10.4651 16.5228 10.465V10.4689Z" fill="#1C449C"/>
<path d="M5.95293 6.77077C6.10273 6.54412 6.31418 6.56065 6.4199 6.80386L7.65806 9.61541C7.76821 9.86277 7.62256 10.065 7.33617 10.065H4.31384V10.0606C4.02746 10.0606 3.91705 9.87524 4.06683 9.64849L5.95293 6.77077Z" fill="#1C449C"/>
<path d="M11.6809 6.55667C11.8572 6.3464 12.1524 6.34615 12.333 6.55229L15.0777 9.68985C15.2583 9.896 15.1747 10.065 14.8884 10.065H9.18691C8.90059 10.065 8.81228 9.8916 8.99295 9.68548L11.6809 6.55667Z" fill="#1C449C"/>
<path d="M17.6023 6.80775C17.7081 6.56051 17.9112 6.54406 18.061 6.77077L19.9331 9.64849C20.0828 9.87525 19.9729 10.0606 19.6866 10.0606H16.7568C16.4704 10.0606 16.3203 9.85887 16.4261 9.61151L17.6023 6.80775Z" fill="#1C449C"/>
<path d="M16.8176 6C17.104 6 17.2494 6.20178 17.1437 6.44913L15.9144 9.35994C15.8086 9.60725 15.5796 9.64042 15.399 9.43439L12.7641 6.37906C12.5837 6.17301 12.6718 6.00004 12.9581 6H16.8176Z" fill="#1C449C"/>
<path d="M11.0371 6C11.3235 6 11.4115 6.1688 11.2353 6.37906L8.65337 9.43001C8.47713 9.64027 8.24378 9.60731 8.13804 9.35994L6.87336 6.44913C6.76774 6.20182 6.91332 6 7.19525 6H11.0371Z" fill="#1C449C"/>
</svg>
