<svg width="24" height="24" viewBox="0 0 24 24" fill="none" xmlns="http://www.w3.org/2000/svg">
<path fill-rule="evenodd" clip-rule="evenodd" d="M17.4758 13.1376C18.0551 13.7168 18.9902 13.7168 19.5656 13.1376C20.1448 12.5584 20.1448 11.6233 19.5656 11.0479C18.9864 10.4687 18.0513 10.4687 17.4758 11.0479C16.8966 11.6233 16.8966 12.5622 17.4758 13.1376ZM11.0477 19.5656C11.6269 20.1448 12.5619 20.1448 13.1374 19.5656C13.7166 18.9864 13.7166 18.0514 13.1374 17.4759C12.5582 16.8967 11.6231 16.8967 11.0477 17.4759C10.4684 18.0514 10.4684 18.9864 11.0477 19.5656ZM15.3066 12.0473C15.318 12.8991 15.6474 13.7622 16.2568 14.3566C16.8399 14.9282 16.8361 15.8708 16.2568 16.4462C15.6776 17.0255 14.7577 17.0065 14.1671 16.4462C11.8237 14.2203 9.59768 16.927 8.6929 16.8778C7.87898 16.8324 7.21268 16.2153 7.21268 15.3976C7.21268 14.5799 7.87519 13.9174 8.6929 13.9174C9.59768 13.9174 11.8237 16.6961 14.1671 14.349C14.7198 13.7963 15.0378 12.9029 15.0757 12.0398C15.0378 11.1766 14.716 10.2832 14.1671 9.73052C11.8237 7.3872 9.59768 10.1621 8.6929 10.1621C7.87519 10.1621 7.21268 9.49961 7.21268 8.68187C7.21268 7.86419 7.87519 7.24713 8.6929 7.20171C9.59768 7.15249 11.8237 9.85921 14.1671 7.63327C14.7577 7.07299 15.6814 7.05407 16.2568 7.63327C16.8361 8.21247 16.8399 9.15511 16.2568 9.72292C15.6511 10.3325 15.318 11.1955 15.3066 12.0473ZM4.43394 13.1376C5.01316 13.7168 5.94824 13.7168 6.52368 13.1376C6.65997 13.0013 6.76218 12.8461 6.83411 12.6795H10.6388C10.8659 13.2019 11.3884 13.5691 11.9979 13.5691C12.8156 13.5691 13.4781 12.9067 13.4781 12.089C13.4781 11.2713 12.8156 10.6088 11.9979 10.6088C11.3884 10.6088 10.8697 10.976 10.6388 11.4984H6.8379C6.76596 11.3318 6.66375 11.1766 6.52746 11.0403C5.94824 10.4611 5.01316 10.4611 4.43773 11.0403C3.85472 11.6233 3.85472 12.5622 4.43394 13.1376ZM10.8621 6.52408C11.4414 7.10328 12.3764 7.10328 12.9519 6.52408C13.5311 5.94487 13.5311 5.00982 12.9519 4.4344C12.3727 3.8552 11.4376 3.8552 10.8621 4.4344C10.2829 5.00982 10.2829 5.94866 10.8621 6.52408Z" fill="#1C449C"/>
</svg>
