<?xml version="1.0" encoding="utf-8"?>
<!-- Generator: Adobe Illustrator 23.0.5, SVG Export Plug-In . SVG Version: 6.00 Build 0)  -->
<svg version="1.1" id="Layer_1" xmlns="http://www.w3.org/2000/svg" xmlns:xlink="http://www.w3.org/1999/xlink" x="0px" y="0px"
	 viewBox="0 0 24 24" style="enable-background:new 0 0 24 24;" xml:space="preserve">
<style type="text/css">
	.st0{fill:#0A0A0A;}
</style>
<path class="st0" d="M18.7,11.9c0.4,0.9,0.7,1.9,0.7,3c0,3.9-3.4,7.1-7.6,7.1c-3.3,0-6.1-2-7.2-4.7c-0.3-0.7,0.2-1.4,1-1.4h1.6
	c0.4,0,0.8,0.2,0.9,0.6c0.6,1.3,2,2.2,3.6,2.2c2.2,0,3.9-1.7,3.9-3.7c0-0.3-0.1-0.6-0.1-0.9c-0.1-0.3,0-0.7,0.2-0.9
	c0.4-0.4,1.1-1.1,1.6-1.5C17.9,11.2,18.4,11.2,18.7,11.9z M5.7,6h5.9c0.2,0,0.3-0.1,0.5-0.2l1.1-1.1c0.3-0.3,0.3-0.7,0-0.9l-1-1
	c-0.1-0.1-0.3-0.2-0.5-0.2H5.7C5.3,2.6,5,2.9,5,3.3v2.1C5,5.7,5.3,6,5.7,6z M19.1,2h-5.6c-0.3,0-0.5,0.4-0.3,0.6L14.5,4
	c0.1,0.1,0.1,0.4,0,0.5L9.1,9.9c-0.3,0.3-0.3,0.9,0,1.3l1.5,1.5c0.1,0.1,0.4,0.1,0.5,0l5.8-5.8c0.1-0.1,0.4-0.1,0.5,0l1.4,1.4
	C19,8.5,19.4,8.3,19.4,8V2.4C19.4,2.2,19.3,2,19.1,2z"/>
</svg>
