<?xml version="1.0" encoding="utf-8"?>
<!-- Generator: Adobe Illustrator 23.0.5, SVG Export Plug-In . SVG Version: 6.00 Build 0)  -->
<svg version="1.1" id="Layer_1" xmlns="http://www.w3.org/2000/svg" xmlns:xlink="http://www.w3.org/1999/xlink" x="0px" y="0px"
	 viewBox="0 0 1102 330" style="enable-background:new 0 0 1102 330;" xml:space="preserve">
<style type="text/css">
	.st0{fill:#1C449C;}
</style>
<path class="st0" d="M345.2,220.8c-3.8-2.4-4-8.4-0.3-11.2c8.4-6.1,12.7-14.7,12.7-25.4v-29.5c0-13.1-4.3-22.6-12.8-28.7
	c-8.6-6-18.7-8.9-30.4-8.9h-33.5c-8.5,0-15.3,7.7-15.3,17.2v173.5c0,11.9,8.7,21.7,19.3,21.7h33.1c11.3,0,20.9-3.5,29-10.5
	c8.1-7,12.1-17.5,12.1-31.4v-41.1C358.8,235.1,354.2,226.6,345.2,220.8z M318.4,237.2V291c0,0.4,0,1,0,1.4
	c-0.6,8.1-11.6,7.4-11.6-0.8v-54.9c0-8.1,11-8.9,11.6-0.8C318.4,236.2,318.4,236.6,318.4,237.2z M318.4,155.7v36.2c0,0.4,0,1,0,1.4
	c-0.6,8.1-11.6,7.4-11.6-0.8v-37.3c0-8.1,11-8.9,11.6-0.8C318.4,154.7,318.4,155.1,318.4,155.7z M462.3,255.1l0.7-23.2
	c0-17.5-7.4-28.8-22.2-34c-1.1-0.4-1.1-2.1,0-2.5c14.6-6.1,22-16.8,22-32.1v-25.4c0-13-4.3-22.5-13-28.5c-8.7-6-18.8-9.1-30.4-9.1
	h-28.7c-12.4,0-22.5,11.3-22.5,25.3v202.1c0,0.7,0.6,1.3,1.1,1.3h39.1c0.7,0,1.1-0.6,1.1-1.3V211.9c0-0.7,0.6-1.4,1.3-1.3
	c7.8,0.3,11.7,3.9,11.7,10.8c0,0.4-0.1,9.4-0.4,27.1l-0.3,12.7v0.3c0,27.4,2.1,59.7,6.4,67c0.1,0.4,0.6,0.6,1,0.6h38.5
	c0.8,0,1.4-1,1-2C464.6,318.3,462.3,286,462.3,255.1z M422.6,173.6c0,7.1-3.9,10.9-11.6,11.3c-0.7,0-1.3-0.6-1.3-1.3v-54.9
	c0-0.7,0.6-1.4,1.3-1.3c7.7,0.3,11.6,4.1,11.6,11V173.6z M525.5,80.4c-31.7,0-47.6,13.7-47.6,41.2V193v32.4v65.3
	c0,25.4,15.8,38.2,47.3,38.2c14,0,25.4-3.4,34-9.9c8.6-6.7,13.1-16.2,13.1-28.5v-66V192v-70.7C572.4,93.9,556.8,80.4,525.5,80.4z
	 M532,286.8c0,5.6-4.6,10.1-9.3,8.7c-2.9-0.8-4.3-3.2-4.3-7.3V117c0-3.9,1.4-6.3,4.3-7.3c4.7-1.4,9.3,3.1,9.3,8.7V286.8z
	 M675.9,72.4v18.7c0,2.5-0.3,4.5-2.5,4.5H654c-2.1,0-3.9,2-3.9,4.5v224.5c0,2.5-1.7,4.5-3.9,4.5h-33.6c-2.1,0-3.9-2-3.9-4.5V100.1
	c0-2.5-1.7-4.5-3.9-4.5h-18c-2.1,0-3.9-2-3.9-4.5V72.4c0-2.5,1.7-4.5,3.9-4.5h86.9C675.8,67.9,676.2,69.9,675.9,72.4z M781.3,57.9
	v264.6c0,3.6-2.7,6.6-5.9,6.6h-29.9c-3.2,0-5.9-2.9-5.9-6.6V168.3c0-3.6-2.7-6.6-5.9-6.6c-3.2,0-5.9,2.9-5.9,6.6v154.2
	c0,3.6-2.7,6.6-5.9,6.6h-29.9c-3.2,0-5.9-2.9-5.9-6.6V57.9c0-3.6,2.7-6.6,5.9-6.6h29.9c3.2,0,5.9,2.9,5.9,6.6v71.7
	c0,3.6,2.7,6.6,5.9,6.6c3.2,0,5.9-2.9,5.9-6.6V57.9c0-3.6,2.7-6.6,5.9-6.6h29.9C778.6,51.3,781.3,54.2,781.3,57.9z M877.2,314.2v1.5
	c0,7.1-5.2,12.9-11.4,12.9h-58.2c-6.3,0-11.4-5.7-11.4-12.9V48.1c0-7.1,5.2-12.9,11.4-12.9h57.6c6.3,0,11.4,5.7,11.4,12.9v1.5
	c0,7.1-5.2,12.9-11.4,12.9h-16.2c-6.3,0-11.4,5.7-11.4,12.9v31.9c0,7.1,5.2,12.9,11.4,12.9h12.4c6.3,0,11.4,5.7,11.4,12.9
	c0,7.1-5.2,12.9-11.4,12.9h-12.4c-6.3,0-11.4,5.7-11.4,12.9v130c0,7.1,5.2,12.9,11.4,12.9h16.7C872.2,301.5,877.2,307.2,877.2,314.2
	z M994.2,174.3l0.7-23.2c0-13.4-4.3-23.1-13-29.4c-4-2.9-4-9.2-0.1-12.2c8.6-6.3,13-15.4,13-27V57c0-13-4.3-22.5-13-28.5
	c-8.7-6-18.8-9.1-30.4-9.1h-44.8c-3.5,0-6.4,3.2-6.4,7.1v295.2c0,3.9,2.8,7.1,6.4,7.1h28.7c3.5,0,6.4-3.2,6.4-7.1V139.1
	c0-7,8.4-10.1,11.6-4.2c0.8,1.5,1.3,3.5,1.3,5.7c0,0.4-0.1,9.4-0.4,27.1l-0.3,12.7v0.3c0,24.9,1.8,117.1,5.3,142.1
	c0.6,3.5,3.2,6,6.3,6h28.2c3.9,0,7-3.9,6.3-8.2C996.1,293,994.2,203.4,994.2,174.3z M954.4,57.7v35.1c0,0.4,0,1,0,1.4
	c-0.7,8.9-12.7,8-12.7-1V57.3c0-8.9,12-9.9,12.7-1C954.4,56.7,954.4,57.2,954.4,57.7z M1102.1,146.8v112.8v27.1
	c0,28.2-16,42.4-48.1,42.4c-31,0-46.5-12.7-46.5-38.4V188c0-11.6,8.4-21.1,18.8-21.1c10.5,0,18.8,9.4,18.8,21.1v102.9
	c0,4.9,2.7,7.3,7.8,7.3c5,0,7.5-2.4,7.5-7.3v-25.2c0-1-0.1-2-0.3-3.1V152.2c0-2.1-0.1-4.1-0.7-6c-1.8-6.2-6-13-12.7-20.5
	c-17.7-19.1-28.6-32.1-32.9-38.7c-4.3-6.7-6.4-14-6.4-21.8V41.2c0-27.5,16-41.2,48-41.2c28.6,0,43,12.6,42.8,37.6v15.5
	c0,11.6-8.4,21.1-18.8,21.1c-10.5,0-18.8-9.4-18.8-21.1V35.2c0-4.3-2.1-6.4-6.3-6.4c-4.9,0-7.4,4.1-7.4,12.3l0.8,13.8
	c0,7.8,4.6,17.1,13.9,27.5c17.3,18.7,28.3,31.7,33.1,39.1C1099.6,128.9,1102,137.4,1102.1,146.8z M232.6,163
	c7.4,15.1,11.4,31.7,11.4,49.3c0,65-56.1,117.7-125.3,117.7c-54,0-100-32.1-117.6-77c-4.3-11,4-23.1,15.9-23.1h26.8
	c6.6,0,12.7,3.6,15.3,9.6c9.9,21.8,32.8,37,59.6,37c35.7,0,64.7-27.3,64.7-60.8c0-5.5-0.8-10.6-2.2-15.7c-1.4-5.2-0.4-10.8,3.3-14.5
	c6.6-6.6,17.6-17.6,25.5-25.4C219,151.4,227.1,151.8,232.6,163z M7.1,55.6v-34c0-5.9,4.7-10.6,10.7-10.6h99.6c2.9,0,5.6,1.1,7.7,3.1
	l16.2,15.9c4.2,4.1,4.2,10.8,0,15l-18.4,18c-2.1,2-4.7,3.1-7.7,3.1H17.9C11.9,66.1,7.1,61.4,7.1,55.6z M244.1,6.3V99
	c0,5.3-6.3,8-10,4.2l-22.3-22.4c-2.4-2.4-6-2.4-8.4,0l-95.6,95.7c-2.4,2.4-6,2.4-8.4,0l-25.1-25.2c-5.7-5.7-5.7-15.1,0-20.8
	L163.8,41c2.4-2.4,2.4-6,0-8.4l-22-22.1c-3.8-3.6-1.1-10.1,4.2-10.1h92.4C241.5,0.4,244.1,3.1,244.1,6.3z"/>
</svg>
