<svg width="24" height="24" viewBox="0 0 24 24" fill="none" xmlns="http://www.w3.org/2000/svg">
<path d="M7.62326 8.36838C9.27923 8.4135 10.0041 7.38809 11.5714 7.94977L9.75266 9.65375C8.57339 10.83 9.34591 11.6177 9.97806 12.1116C11.5268 13.3138 12.5655 11.1243 13.4415 11.0824L17.0828 14.328C17.14 14.3798 17.2081 14.4187 17.2816 14.4409C17.3549 14.463 17.4323 14.4682 17.5079 14.4565C17.2085 15.2931 16.5659 15.4362 16.03 15.1009C16.2444 15.8059 15.183 16.6085 14.4806 15.9789C14.5066 16.1572 14.4822 16.3395 14.4109 16.5044C14.3396 16.6693 14.2241 16.8102 14.0774 16.9108C13.9308 17.0114 13.7593 17.068 13.5826 17.0732C13.406 17.0785 13.2317 17.032 13.0796 16.9404C13.1129 17.7885 12.1407 18.3166 11.5751 17.7889L12.6838 16.7901C13.29 16.1794 12.5545 14.7088 11.4862 15.0705C11.486 14.8916 11.4419 14.7157 11.3589 14.5581C11.2757 14.4005 11.156 14.2662 11.0098 14.1673C10.8635 14.0684 10.6952 14.0076 10.5205 13.991C10.3457 13.9744 10.1691 14.0021 10.0074 14.0717C9.98822 13.9074 9.93444 13.7492 9.84978 13.608C9.76506 13.4667 9.65105 13.3451 9.51626 13.2528C9.38169 13.1606 9.22908 13.0996 9.06912 13.073C8.90888 13.0464 8.74458 13.055 8.58808 13.099C8.49561 12.2811 7.60813 11.6251 6.79862 12.3825L5.76324 13.3405L5.51218 13.1781L7.62326 8.36838Z" fill="#1C449C"/>
<path d="M11.3204 15.7931C11.5826 15.555 11.9847 15.5787 12.2183 15.8461C12.4519 16.1135 12.4283 16.5232 12.1661 16.7615L11.007 17.8149C10.7448 18.0531 10.3427 18.0293 10.1091 17.762C9.87568 17.4946 9.89921 17.0847 10.1613 16.8466L11.3204 15.7931Z" fill="#1C449C"/>
<path d="M9.913 14.7717C10.1752 14.5338 10.5774 14.5575 10.8109 14.8247C11.0444 15.0921 11.0207 15.5019 10.7587 15.7401L9.59964 16.7936C9.33744 17.0318 8.93533 17.008 8.7017 16.7406C8.46828 16.4732 8.49178 16.0634 8.75393 15.8252L9.913 14.7717Z" fill="#1C449C"/>
<path d="M8.50104 13.7513C8.76313 13.5131 9.16535 13.5363 9.39898 13.8034C9.6326 14.0708 9.60987 14.4814 9.34767 14.7196L8.18859 15.7722C7.9265 16.0104 7.52428 15.9872 7.29065 15.7201C7.05703 15.4528 7.07976 15.0421 7.34196 14.8039L8.50104 13.7513Z" fill="#1C449C"/>
<path d="M7.18528 12.736C7.44866 12.4962 7.85253 12.5196 8.0878 12.7881C8.32287 13.0567 8.29984 13.4688 8.03649 13.7087L6.87283 14.7691C6.60946 15.0091 6.20468 14.9856 5.9694 14.717C5.73439 14.4484 5.75743 14.0363 6.02071 13.7964L7.18528 12.736Z" fill="#1C449C"/>
<path d="M12.0589 8.29977C13.6263 6.99548 14.9503 8.48442 16.5807 8.34494L18.7064 13.1746L17.4676 13.9701L13.9702 10.8106C13.3344 10.1475 12.1592 11.2482 11.6896 11.6252C10.6065 12.5262 8.93519 11.052 10.1586 10.0116C10.6687 9.57803 11.5598 8.71069 12.0589 8.29977Z" fill="#1C449C"/>
<path d="M5.19974 7.2489C5.29181 7.03772 5.53416 6.94223 5.74125 7.03612L6.95347 7.58588C7.16041 7.67971 7.25414 7.92715 7.16237 8.13823L4.99816 13.1025C4.90609 13.3137 4.66281 13.4092 4.45573 13.3153L3.24351 12.7647C3.0365 12.6707 2.94346 12.4234 3.03552 12.2123L5.19974 7.2489Z" fill="#1C449C"/>
<path d="M17.8515 7.23935C18.3926 6.99216 19.0287 7.23991 19.2717 7.79258L20.9054 11.5114C21.1484 12.0644 20.907 12.7136 20.3658 12.9609C19.8245 13.2082 19.1885 12.9606 18.9455 12.4077L17.3118 8.68886C17.0689 8.13596 17.3103 7.48671 17.8515 7.23935Z" fill="#1C449C"/>
</svg>
