<svg width="24" height="24" viewBox="0 0 24 24" fill="none" xmlns="http://www.w3.org/2000/svg">
<path d="M12 16.5C10.2375 16.5 9.01406 15.7031 8.31094 14.9719C7.88438 14.5219 7.17187 14.5125 6.72187 14.9391C6.27187 15.3656 6.25781 16.0781 6.68906 16.5281C7.725 17.6063 9.50156 18.75 12 18.75C14.4984 18.75 16.275 17.6063 17.3109 16.5281C17.7422 16.0828 17.7234 15.3703 17.2781 14.9391C16.8328 14.5078 16.1203 14.5219 15.6891 14.9719C14.9859 15.7031 13.7625 16.5 12 16.5Z" fill="#1C449C"/>
<path d="M6.9375 9.75C6.9375 9.02344 7.52344 8.4375 8.25 8.4375C8.97656 8.4375 9.5625 9.02344 9.5625 9.75V10.125C9.5625 10.6406 9.98438 11.0625 10.5 11.0625C11.0156 11.0625 11.4375 10.6406 11.4375 10.125V9.75C11.4375 7.9875 10.0125 6.5625 8.25 6.5625C6.4875 6.5625 5.0625 7.9875 5.0625 9.75V10.125C5.0625 10.6406 5.48438 11.0625 6 11.0625C6.51562 11.0625 6.9375 10.6406 6.9375 10.125V9.75Z" fill="#1C449C"/>
<path d="M14.4375 10.125V9.75C14.4375 9.02344 15.0234 8.4375 15.75 8.4375C16.4766 8.4375 17.0625 9.02344 17.0625 9.75V10.125C17.0625 10.6406 17.4844 11.0625 18 11.0625C18.5156 11.0625 18.9375 10.6406 18.9375 10.125V9.75C18.9375 7.9875 17.5125 6.5625 15.75 6.5625C13.9875 6.5625 12.5625 7.9875 12.5625 9.75V10.125C12.5625 10.6406 12.9844 11.0625 13.5 11.0625C14.0156 11.0625 14.4375 10.6406 14.4375 10.125Z" fill="#1C449C"/>
</svg>
