<svg width="24" height="24" viewBox="0 0 24 24" fill="none" xmlns="http://www.w3.org/2000/svg">
<path fill-rule="evenodd" clip-rule="evenodd" d="M12.3918 4.33632C13.9232 5.64423 16.0777 5.83687 17.2252 5.83687H17.3584L18 5.82882V12.3733C17.9999 14.612 16.5223 16.535 15.2798 17.7488C14.0334 18.9666 12.7223 19.7625 12.1865 19.9389L12.0004 20L11.8142 19.9389C11.2784 19.7625 9.96352 18.9666 8.72095 17.7488C7.48223 16.535 6.00008 14.6121 6 12.3733V5.82882L6.64234 5.83687H6.77552C7.92693 5.83685 10.0814 5.64021 11.6089 4.33632L12.0004 4L12.3918 4.33632ZM12.1564 9.35935C11.7079 9.35935 11.2971 9.47013 10.9246 9.69567C10.1763 10.1427 9.65982 11.0162 9.65982 11.992C9.65984 12.4839 9.77364 12.9312 10.013 13.3412C10.4728 14.1653 11.256 14.6326 12.1527 14.6326C13.0493 14.6325 13.8774 14.1852 14.3409 13.3364L13.4175 12.7547C13.3302 12.894 13.2353 13.0129 13.1327 13.1071C12.8706 13.3654 12.5439 13.4884 12.1564 13.4885C11.3774 13.4885 10.8526 12.8366 10.8525 11.992C10.8525 11.1472 11.3736 10.4954 12.1564 10.4954C12.5363 10.4955 12.8708 10.6387 13.1482 10.9339C13.2431 11.0282 13.3151 11.1308 13.3645 11.2332L14.2953 10.6547C13.8355 9.82669 13.0529 9.35941 12.1564 9.35935Z" fill="#1C449C"/>
</svg>
