<svg width="24" height="24" viewBox="0 0 24 24" fill="none" xmlns="http://www.w3.org/2000/svg">
<path d="M11.3333 4.75C11.3333 4.33437 11.6306 4 12 4C12.3694 4 12.6667 4.33437 12.6667 4.75V6H14.2222C14.7139 6 15.1111 6.44687 15.1111 7C15.1111 7.55313 14.7139 8 14.2222 8H11.0306C10.3389 8 9.77778 8.63125 9.77778 9.40938C9.77778 10.1125 10.2361 10.7062 10.8528 10.8062L13.3972 11.2156C14.8917 11.4562 16 12.8937 16 14.5906C16 16.475 14.6417 18 12.9694 18H12.6667V19.25C12.6667 19.6656 12.3694 20 12 20C11.6306 20 11.3333 19.6656 11.3333 19.25V18H9.33333C8.84167 18 8.44444 17.5531 8.44444 17C8.44444 16.4469 8.84167 16 9.33333 16H12.9694C13.6611 16 14.2222 15.3687 14.2222 14.5906C14.2222 13.8875 13.7639 13.2938 13.1472 13.1938L10.6028 12.7844C9.10833 12.5469 8 11.1063 8 9.40938C8 7.52813 9.35833 6 11.0306 6H11.3333V4.75Z" fill="#1C449C"/>
</svg>
