<svg width="24" height="24" viewBox="0 0 24 24" fill="none" xmlns="http://www.w3.org/2000/svg">
<g clip-path="url(#clip0_4573_2416)">
<path d="M0.263672 8.70117L2.07422 10.5117C2.42578 10.8633 2.90039 11.0625 3.39844 11.0625H4.6582C5.15625 11.0625 5.63086 11.2617 5.98242 11.6133L7.69922 13.3301C8.05078 13.6816 8.25 14.1562 8.25 14.6543V16.8516C8.25 17.3496 8.44922 17.8242 8.80078 18.1758L9.58008 18.9551C9.93164 19.3066 10.1309 19.7812 10.1309 20.2793V21.375C10.1309 22.4121 10.9688 23.25 12.0059 23.25C13.043 23.25 13.8809 22.4121 13.8809 21.375V21.2168C13.8809 20.7187 14.0801 20.2441 14.4316 19.8926L17.0859 17.2383C17.4375 16.8867 17.6367 16.4121 17.6367 15.9141V13.8809C17.6367 12.8438 16.7988 12.0059 15.7617 12.0059H10.916C10.418 12.0059 9.94336 11.8066 9.5918 11.4551L8.6543 10.5176C8.4082 10.2715 8.26758 9.93164 8.26758 9.58008C8.26758 8.84766 8.85937 8.25586 9.5918 8.25586H11.625C12.3574 8.25586 12.9492 7.66406 12.9492 6.93164C12.9492 6.58008 12.8086 6.24023 12.5625 5.99414L11.4082 4.83984C11.1797 4.61719 11.0625 4.33008 11.0625 4.03125C11.0625 3.73242 11.1797 3.44531 11.3965 3.22852L12.4102 2.21484C12.75 1.875 12.9434 1.41211 12.9434 0.931641C12.9434 0.509766 12.8027 0.128906 12.5684 -0.175781C12.3809 -0.181641 12.1934 -0.1875 12.0059 -0.1875C6.41602 -0.1875 1.71094 3.57422 0.269531 8.70117H0.263672ZM24.1875 12C24.1875 9.97266 23.6953 8.0625 22.8164 6.38672C22.4414 6.43945 22.0723 6.61523 21.7676 6.91992L20.9824 7.70508C20.6309 8.05664 20.4316 8.53125 20.4316 9.0293V11.0625C20.4316 12.0996 21.2695 12.9375 22.3066 12.9375H23.7188C23.8652 12.9375 24.0117 12.9199 24.1465 12.8906C24.1699 12.5977 24.1758 12.2988 24.1758 12H24.1875ZM-3 12C-3 3.71484 3.71484 -3 12 -3C20.2852 -3 27 3.71484 27 12C27 20.2852 20.2852 27 12 27C3.71484 27 -3 20.2852 -3 12Z" fill="#1C449C"/>
</g>
<defs>
<clipPath id="clip0_4573_2416">
<rect width="24" height="24" rx="12" fill="white"/>
</clipPath>
</defs>
</svg>
