<svg width="24" height="24" viewBox="0 0 24 24" fill="none" xmlns="http://www.w3.org/2000/svg">
<path fill-rule="evenodd" clip-rule="evenodd" d="M11.4931 17.0646C10.3012 17.0646 9.15857 16.5314 8.31603 15.5811C7.47298 14.6314 7 13.3434 7 12C7 11.6846 7.22711 11.4286 7.50695 11.4286C7.78678 11.4286 8.01389 11.6846 8.01389 12C8.01389 13.04 8.38041 14.0377 9.03285 14.7731C9.68529 15.5086 10.5704 15.9217 11.4931 15.9217H12.5069C13.4296 15.9217 14.3147 15.5086 14.9671 14.7731C15.6196 14.0377 15.9861 13.04 15.9861 12C15.9861 11.6846 16.2132 11.4286 16.4931 11.4286C16.7729 11.4286 17 11.6846 17 12C17 13.3434 16.527 14.6314 15.684 15.5811C14.8414 16.5314 13.6988 17.0646 12.5069 17.0646V18.8571H14.5347C14.8146 18.8571 15.0417 19.1131 15.0417 19.4286C15.0417 19.744 14.8146 20 14.5347 20H9.46527C9.18544 20 8.95833 19.744 8.95833 19.4286C8.95833 19.1131 9.18544 18.8571 9.46527 18.8571H11.4931V17.0646ZM14.9905 12.5714C14.8916 13.116 14.6534 13.6211 14.2995 14.0206C13.824 14.556 13.1792 14.8571 12.5069 14.8571H11.4931C10.8208 14.8571 10.176 14.556 9.70049 14.0206C9.22549 13.4846 8.95833 12.7577 8.95833 12V6.85714C8.95833 6.09943 9.22549 5.37257 9.70049 4.83657C10.176 4.30115 10.8208 4 11.4931 4H12.5069C13.1792 4 13.824 4.30115 14.2995 4.83657C14.6534 5.236 14.8916 5.74057 14.9905 6.28514H12.5069C12.2271 6.28514 12 6.54171 12 6.85657C12 7.172 12.2271 7.428 12.5069 7.428H15.0417V8.85714H12.5069C12.2271 8.85714 12 9.11314 12 9.42857C12 9.744 12.2271 10 12.5069 10H15.0417V11.4286H12.5069C12.2271 11.4286 12 11.6846 12 12C12 12.3154 12.2271 12.5714 12.5069 12.5714H14.9905Z" fill="#1C449C"/>
</svg>
