<svg width="24" height="24" viewBox="0 0 24 24" fill="none" xmlns="http://www.w3.org/2000/svg">
<path d="M6.08595 7.19599C6.36041 6.93473 6.80735 6.93461 7.08173 7.19599C7.3561 7.45738 7.35598 7.88316 7.08173 8.14461C4.85094 10.2698 4.85094 13.7283 7.08173 15.8535C7.35611 16.1148 7.35599 16.5406 7.08173 16.8021C6.94064 16.9365 6.7602 17 6.58384 17C6.4035 17 6.22317 16.9365 6.08595 16.8021C4.7412 15.521 4 13.8142 4 11.999C4.00004 10.184 4.74124 8.48076 6.08595 7.19599Z" fill="#1C449C"/>
<path d="M16.9183 7.19599C17.1927 6.93469 17.6396 6.93465 17.914 7.19599C19.2587 8.47703 20 10.184 20 11.999C20 13.8142 19.2587 15.5173 17.914 16.8021C17.7729 16.9365 17.5926 17 17.4162 17C17.2358 17 17.0555 16.9365 16.9183 16.8021C16.6439 16.5406 16.6438 16.1149 16.9183 15.8535C19.149 13.7283 19.1491 10.2697 16.9183 8.14461C16.6439 7.88316 16.6439 7.45742 16.9183 7.19599Z" fill="#1C449C"/>
<path d="M8.3556 9.36609C8.63003 9.10466 9.07694 9.10468 9.35138 9.36609C9.62582 9.62753 9.62582 10.0533 9.35138 10.3147C8.87702 10.7666 8.61847 11.3679 8.61843 12.0065C8.61843 12.6451 8.88101 13.2464 9.35138 13.6983C9.62582 13.9598 9.62582 14.386 9.35138 14.6474C9.21417 14.7706 9.03377 14.8378 8.85349 14.8378C8.67319 14.8378 8.4928 14.7743 8.3556 14.6399C7.61464 13.9341 7.21085 13.0002 7.21083 12.003C7.21083 11.0058 7.61854 10.0682 8.3556 9.36609Z" fill="#1C449C"/>
<path d="M14.6445 9.3586C14.9189 9.09721 15.3658 9.09717 15.6402 9.3586C16.3812 10.0645 16.785 10.9983 16.785 11.9955C16.785 12.9927 16.3773 13.9303 15.6402 14.6324C15.503 14.7705 15.3226 14.8378 15.1423 14.8378C14.9621 14.8378 14.7817 14.7743 14.6445 14.6399C14.37 14.3785 14.3701 13.9527 14.6445 13.6913C15.1189 13.2394 15.3774 12.6377 15.3774 11.999C15.3774 11.3604 15.1149 10.7591 14.6445 10.3072C14.37 10.0458 14.37 9.62004 14.6445 9.3586Z" fill="#1C449C"/>
<path d="M11.9898 10.4681C12.8754 10.4681 13.5936 11.1518 13.5936 11.9955C13.5936 12.8391 12.8754 13.5229 11.9898 13.5229C11.1043 13.5228 10.3865 12.8391 10.3865 11.9955C10.3865 11.1519 11.1043 10.4682 11.9898 10.4681Z" fill="#1C449C"/>
</svg>
