<svg width="24" height="24" viewBox="0 0 24 24" fill="none" xmlns="http://www.w3.org/2000/svg">
<path d="M18.5836 16.5336C17.1388 18.625 14.7252 20 11.9957 20C9.59869 20 7.44794 18.942 5.98263 17.2663L12.0574 13.0869L18.5836 16.5336Z" fill="#1C449C"/>
<path d="M12.9482 4C16.9174 4.47349 20 7.86242 20 11.9715C20 12.9842 19.811 13.9475 19.4704 14.8409L12.9482 11.3948V4Z" fill="#1C449C"/>
<path d="M6.24946 14.7137H4.47597C4.26664 14.1455 4.12303 13.5481 4.04915 12.9305H8.92173L6.24946 14.7137Z" fill="#1C449C"/>
<path d="M11.0438 11.469L10.773 11.6542H4C4.02463 11.0407 4.11487 10.4438 4.27084 9.87147H11.0438V11.469Z" fill="#1C449C"/>
<path d="M11.0438 8.59519H4.73477C5.03441 7.94878 5.41628 7.35183 5.86778 6.81246H11.0438V8.59519Z" fill="#1C449C"/>
<path d="M11.0438 5.53619H7.21394C8.30987 4.71684 9.61951 4.16881 11.0438 4V5.53619Z" fill="#1C449C"/>
</svg>
