<svg width="24" height="24" viewBox="0 0 24 24" fill="none" xmlns="http://www.w3.org/2000/svg">
<path d="M10.468 10.226C11.4739 11.6559 12.1954 13.2625 12.5938 14.9595C12.1369 15.1246 11.9739 15.2032 11.5369 15.3959C11.5726 16.0052 11.5807 16.4573 11.6363 16.9093C11.6701 17.0624 11.7381 17.2061 11.8351 17.33C12.0934 17.7034 12.5661 18.0339 12.0378 18.5332C11.5093 19.0325 10.5674 19.1897 10.0946 18.7139C9.62176 18.2383 9.24422 17.6602 8.75555 17.2042C8.50037 16.9796 8.16732 16.8614 7.82603 16.8741C7.41353 16.8988 7.00213 16.808 6.63949 16.6119C6.2769 16.4158 5.9776 16.1224 5.77582 15.7656C5.61292 15.3882 5.45794 15.0184 5.30299 14.6253C4.7825 13.3516 5.18355 12.4199 6.49462 11.8735C7.93296 11.2838 9.04958 10.8314 10.468 10.226Z" fill="#1C449C"/>
<path d="M4.53575 13.8704C4.46821 14.4916 5.39008 16.2806 5.39008 16.2806C5.27825 16.2847 4.43267 16.5237 4.08714 15.3251C3.74408 14.1351 4.52386 13.8743 4.53575 13.8704Z" fill="#1C449C"/>
<path d="M15.4746 5.00112C15.6063 4.99399 15.7377 5.02103 15.8561 5.07888C15.9744 5.13673 16.0757 5.22369 16.1501 5.3316C16.5156 6.07461 16.8018 6.88046 17.1395 7.64706C17.1395 7.64706 17.183 7.71811 17.2784 7.89896L17.3145 7.98127C17.3196 7.99254 17.3261 8.00318 17.3341 8.0127C17.5923 8.52772 18.1169 9.67183 18.9871 11.9835C18.9848 12.0135 18.9848 12.0439 18.9871 12.0741C19.2692 12.9035 19.6785 13.6938 19.9527 14.5273C20.04 14.7868 20.0121 15.3096 19.8214 15.4393C19.6306 15.5688 19.2334 15.2542 18.9633 15.1167C18.6931 14.979 18.4545 14.7473 18.1684 14.6373C16.6999 14.0354 15.052 14.0241 13.5752 14.6058C13.1514 12.9039 12.409 11.2956 11.3861 9.86449L11.8232 9.67174C13.1881 9.06602 14.274 7.97617 14.8667 6.61714C14.9474 6.29304 15.0111 5.965 15.0574 5.63437C15.1408 5.39456 15.2878 5.05617 15.4746 5.00112Z" fill="#1C449C"/>
<path d="M18.0614 8.16202C18.2198 8.18813 18.3754 8.2291 18.5261 8.28404C19.0943 8.5553 19.7898 10.1908 19.603 10.7765C19.5327 10.9579 19.4516 11.1351 19.3605 11.3072C18.7526 9.7347 18.3315 8.74779 18.0614 8.16202Z" fill="#1C449C"/>
</svg>
