<svg width="24" height="24" viewBox="0 0 24 24" fill="none" xmlns="http://www.w3.org/2000/svg">
<path d="M10.2666 16.7745C10.2666 16.7745 6.88532 15.1916 5.50552 15.2684C5.50552 15.2684 5.3892 15.718 4.67925 15.6449C3.96929 15.5719 3.73665 15.0802 4.36639 14.8151C4.99612 14.55 6.41201 13.4589 8.18088 12.6675C8.18088 12.6675 7.74769 8.7488 11.133 7.28121C11.133 7.28121 12.236 6.75488 14.045 6.52821C14.045 6.52821 13.9648 5.96346 14.7149 6.00187C15.4609 6.04029 15.501 6.60505 15.501 6.60505C15.501 6.60505 18.0962 7.43489 18.9625 8.86406C19.8289 10.2971 20.0656 12.9326 19.9854 13.3859C19.9854 13.3859 19.7086 13.7624 19.2794 13.724C18.8462 13.6856 16.7244 13.8009 16.7244 13.8009C16.7244 13.8009 15.4649 15.7218 12.6732 16.7783C12.6652 16.7745 11.1811 17.2816 10.2666 16.7745Z" fill="#1C449C"/>
</svg>
