<svg width="24" height="24" viewBox="0 0 24 24" fill="none" xmlns="http://www.w3.org/2000/svg">
<path d="M18.3475 10.5718C18.4094 10.5718 18.4714 10.5795 18.5333 10.595C18.781 10.6607 18.9487 10.8576 18.9852 11.1281C18.9961 11.2092 18.9998 11.2904 18.9998 11.3715C18.9998 13.3846 18.9926 14.8955 18.9998 16.9086C19.0071 17.5539 18.7628 18.0371 18.2783 18.3887C17.8812 18.6784 17.4624 18.8332 17.0217 18.8332C16.7959 18.8332 16.5626 18.7945 16.3258 18.7095C15.9469 18.5743 15.6628 18.3152 15.5572 17.8903C15.4624 17.5078 15.5462 17.1559 15.7502 16.8352C16.0817 16.3136 16.559 16.0201 17.1346 15.9158C17.3057 15.8849 17.4331 15.8691 17.5533 15.8691C17.7573 15.8691 17.9434 15.9156 18.2749 16.02V12.7586C18.2749 12.5154 18.1982 12.3995 18.0345 12.3994C17.9835 12.3994 17.9213 12.411 17.852 12.4342C17.3712 12.5926 16.8867 12.755 16.4059 12.9134C15.7174 13.1414 15.0289 13.3691 14.3405 13.601C14.162 13.6628 14.0054 13.7674 13.9289 13.9645C13.8998 14.0379 13.8924 14.1228 13.8924 14.2039C13.8888 14.8955 13.8849 15.6722 13.8849 16.4334C13.8849 16.9897 13.8852 17.5461 13.8924 18.0523C13.9034 18.8366 13.5644 19.3738 12.9342 19.7255C12.6137 19.9032 12.2786 20 11.9362 20C11.7212 20 11.5062 19.9611 11.2876 19.8839C10.8723 19.7332 10.5808 19.4472 10.5043 18.9681C10.4497 18.6204 10.5374 18.3035 10.7195 18.0176C10.9162 17.7046 11.1639 17.4767 11.4516 17.3144C11.6556 17.1985 11.8816 17.1137 12.122 17.0634C12.2677 17.0364 12.4097 17.0168 12.5554 17.0168C12.6027 17.0168 12.6465 17.0209 12.6938 17.0247C12.7995 17.0363 12.905 17.0557 13.0106 17.0866C13.0616 17.1021 13.1127 17.1253 13.1746 17.1484V16.8236C13.1746 15.506 13.1854 14.5978 13.1709 13.2338C13.1673 12.635 13.5538 12.0826 14.0783 11.9126C14.9343 11.6383 15.7869 11.36 16.6429 11.0818C17.1237 10.9272 17.6045 10.7686 18.0853 10.6141C18.1727 10.5871 18.2601 10.5718 18.3475 10.5718Z" fill="#1C449C"/>
<path fill-rule="evenodd" clip-rule="evenodd" d="M10.8214 5C13.8377 5.00005 16.3148 7.4264 16.6136 10.5407C16.457 10.5909 16.304 10.6413 16.1474 10.6915C15.4116 10.9311 14.6756 11.1706 13.9361 11.4102C13.2003 11.6459 12.6719 12.4148 12.6792 13.2378C12.6901 14.2309 12.6903 14.9766 12.6867 15.8344V16.4952C12.643 16.4914 12.6028 16.4912 12.5592 16.4912C12.3916 16.4912 12.2167 16.5109 12.031 16.5495C11.4517 16.6731 10.9742 16.9395 10.6063 17.3452C7.49165 17.2253 5 14.5089 5 11.1744C5.00008 7.76637 7.60481 5 10.8214 5ZM10.9053 9.50519C10.6176 9.50519 10.355 9.57494 10.1146 9.71788C9.63377 9.99997 9.30232 10.5525 9.30232 11.1668C9.30232 11.4798 9.37506 11.7619 9.52804 12.0208C9.82676 12.5385 10.3298 12.836 10.9053 12.836C11.4809 12.8359 12.0125 12.5538 12.3112 12.0168L11.7247 11.6536C11.6701 11.7425 11.6082 11.8161 11.5426 11.8779C11.3714 12.0401 11.1602 12.1173 10.9125 12.1173C10.3624 12.1173 10.009 11.6226 10.0818 11.016C10.1365 10.5524 10.5409 10.197 10.978 10.2279C11.1929 10.2433 11.3825 10.3358 11.5464 10.502C11.6047 10.5599 11.6557 10.6259 11.6848 10.6915L12.2823 10.3244C11.9836 9.80283 11.4809 9.50525 10.9053 9.50519Z" fill="#1C449C"/>
</svg>
