<svg width="24" height="24" viewBox="0 0 24 24" fill="none" xmlns="http://www.w3.org/2000/svg">
<path d="M12 5C12.9652 5 13.75 5.78477 13.75 6.75C13.75 7.71523 12.9652 8.5 12 8.5C11.0348 8.5 10.25 7.71523 10.25 6.75C10.25 5.78477 11.0348 5 12 5ZM14.625 13.5312C14.625 14.2148 14.2777 14.8164 13.75 15.1691V17.6875C13.75 18.4121 13.1621 19 12.4375 19H11.5625C10.8379 19 10.25 18.4121 10.25 17.6875V15.1691C9.72227 14.8164 9.375 14.2148 9.375 13.5312V12.4375C9.375 10.9883 10.5508 9.8125 12 9.8125C13.4492 9.8125 14.625 10.9883 14.625 12.4375V13.5312ZM7.625 5.875C8.46992 5.875 9.15625 6.56133 9.15625 7.40625C9.15625 8.25117 8.46992 8.9375 7.625 8.9375C6.78008 8.9375 6.09375 8.25117 6.09375 7.40625C6.09375 6.56133 6.78008 5.875 7.625 5.875ZM8.0625 12.4375V13.3125C8.0625 14.2012 8.39336 15.0105 8.9375 15.6285V17.6875C8.9375 17.7203 8.9375 17.7559 8.94023 17.7887C8.70781 17.9965 8.40156 18.125 8.0625 18.125H7.1875C6.46289 18.125 5.875 17.5371 5.875 16.8125V15.2648C5.35273 14.9641 5 14.398 5 13.75V12.875C5 11.4258 6.17578 10.25 7.625 10.25C7.97227 10.25 8.30312 10.3184 8.60664 10.4387C8.26211 11.0238 8.0625 11.7074 8.0625 12.4375ZM15.0625 17.6875V15.6285C15.6066 15.0133 15.9375 14.2012 15.9375 13.3125V12.4375C15.9375 11.7074 15.7379 11.0266 15.3934 10.4387C15.6969 10.3156 16.0277 10.25 16.375 10.25C17.8242 10.25 19 11.4258 19 12.875V13.75C19 14.398 18.6473 14.9641 18.125 15.2648V16.8125C18.125 17.5371 17.5371 18.125 16.8125 18.125H15.9375C15.6012 18.125 15.2922 17.9992 15.0598 17.7887C15.0598 17.7559 15.0625 17.7203 15.0625 17.6875ZM16.375 5.875C17.2199 5.875 17.9062 6.56133 17.9062 7.40625C17.9062 8.25117 17.2199 8.9375 16.375 8.9375C15.5301 8.9375 14.8438 8.25117 14.8438 7.40625C14.8438 6.56133 15.5301 5.875 16.375 5.875Z" fill="#1C449C"/>
</svg>
