<svg width="24" height="24" viewBox="0 0 24 24" fill="none" xmlns="http://www.w3.org/2000/svg">
<path d="M12.2048 10.051C12.7203 10.051 13.1578 10.2435 13.5171 10.6243C13.8802 11.001 14.0639 11.4594 14.0639 11.9998C14.0639 12.5402 13.8803 12.999 13.5171 13.3757C13.1617 13.7605 12.7242 13.953 12.2048 13.953C11.6933 13.9529 11.2522 13.7605 10.893 13.3757C10.5298 13.0031 10.3461 12.5444 10.3461 11.9998C10.3461 11.4634 10.5298 11.001 10.893 10.6243C11.2522 10.2436 11.6894 10.051 12.2048 10.051Z" fill="#1C449C"/>
<path fill-rule="evenodd" clip-rule="evenodd" d="M12.209 3C13.3064 3.00003 14.3215 3.9706 15.0596 5.73125C15.1689 5.98917 15.2666 6.25523 15.3603 6.53772C15.8055 6.47221 16.2353 6.43932 16.6376 6.43932C17.3756 6.43933 18.0084 6.55017 18.5238 6.77127C19.086 7.01282 19.4921 7.37713 19.7264 7.85196C19.9802 8.35968 20.0193 8.95368 19.8553 9.60879C19.6951 9.44502 19.5116 9.33851 19.3047 9.29346C19.3906 8.85127 19.3517 8.46627 19.1916 8.14279C18.848 7.4508 17.9419 7.07 16.6376 7.06998C16.29 7.06998 15.9227 7.09458 15.5439 7.14782C15.7587 7.9217 15.9191 8.76925 16.0206 9.65777C16.8212 10.2474 17.5356 10.8782 18.1292 11.5292C18.1722 11.476 18.2114 11.4224 18.2543 11.3691C18.266 11.3529 18.2777 11.3407 18.2894 11.3245C18.4455 11.48 18.6291 11.5823 18.8321 11.6232C18.797 11.6682 18.762 11.7173 18.7269 11.7623C18.6683 11.8401 18.6017 11.922 18.5392 11.9998C18.6017 12.0817 18.6641 12.1598 18.7344 12.2294C19.8864 13.7321 20.242 15.12 19.7343 16.1437C19.5 16.6186 19.0937 16.9832 18.5313 17.2248C18.0159 17.4458 17.3831 17.5563 16.6451 17.5563C16.2429 17.5563 15.8134 17.5234 15.3683 17.4579C15.2824 17.7117 15.1964 17.9575 15.0988 18.1909C14.9465 18.0313 14.7707 17.9291 14.5716 17.8799C14.6418 17.708 14.7043 17.5317 14.7668 17.3516C13.9194 17.1755 13.0252 16.9011 12.1193 16.5285C11.2796 16.8725 10.4514 17.1345 9.65869 17.3105C9.7407 17.5562 9.82693 17.7896 9.92064 18.0107C10.237 18.7682 10.604 19.362 11.0102 19.7715C11.4007 20.1645 11.8069 20.365 12.2169 20.365C12.623 20.3649 13.029 20.1684 13.4195 19.7754C13.4468 19.8082 13.4742 19.8411 13.5054 19.8738C13.6264 20.0048 13.7633 20.099 13.9117 20.1564C13.3963 20.7091 12.8183 20.9999 12.2169 21C11.1196 21 10.104 20.0294 9.36587 18.2688C9.25653 18.0067 9.15132 17.7241 9.05762 17.4334C8.54599 17.5194 8.04974 17.5646 7.58893 17.5646C6.8509 17.5646 6.21815 17.4538 5.7027 17.2327C5.14049 16.9911 4.73443 16.6268 4.50013 16.152C3.99245 15.1283 4.34793 13.7359 5.49997 12.2373C5.55852 12.1595 5.62482 12.0776 5.68726 11.9998C5.62479 11.922 5.56244 11.8401 5.49997 11.7623C5.35549 11.5739 5.22253 11.3898 5.10538 11.2056C5.30453 11.1605 5.48032 11.0582 5.63262 10.8985C5.73413 11.05 5.84738 11.2055 5.9684 11.3652C6.00746 11.4184 6.05058 11.4716 6.09354 11.5248C6.74177 10.8165 7.53454 10.1288 8.42484 9.49421C8.52637 8.67527 8.67842 7.89299 8.87366 7.17232C8.42077 7.10274 7.99127 7.06604 7.58517 7.06604C6.28082 7.06604 5.37479 7.44689 5.03113 8.13886C4.92573 8.35177 4.87513 8.58914 4.87512 8.85524H4.84384C4.63301 8.85524 4.44153 8.90846 4.27363 9.01487C4.24631 8.58905 4.3204 8.19602 4.49221 7.84802C4.72652 7.37304 5.13284 7.00847 5.69519 6.76689C6.21065 6.54584 6.84341 6.43538 7.58142 6.43538C8.04218 6.43539 8.53424 6.48061 9.04969 6.56659C9.1434 6.27589 9.24509 5.99738 9.35836 5.73125C10.0964 3.97057 11.1077 3 12.209 3ZM18.1292 12.4747C17.5356 13.1257 16.8212 13.7566 16.0206 14.3462C15.9191 15.2347 15.7587 16.0822 15.5439 16.8561C15.9266 16.9052 16.29 16.934 16.6376 16.934C17.9419 16.9339 18.848 16.5531 19.1916 15.8611C19.379 15.4762 19.3983 15.0053 19.2421 14.4607C19.082 13.8957 18.7503 13.2813 18.2543 12.6344C18.2153 12.5812 18.1722 12.528 18.1292 12.4747ZM5.95297 12.6304C5.45701 13.2774 5.12492 13.8917 4.96481 14.4568C4.81253 15.0054 4.8281 15.4764 5.01945 15.8572C5.36317 16.5491 6.26924 16.9296 7.57349 16.9296C7.9796 16.9296 8.41306 16.8929 8.85823 16.8233C8.66296 16.1027 8.51056 15.3207 8.40899 14.5019C7.51863 13.8672 6.72595 13.1792 6.07769 12.4708C6.03477 12.524 5.99588 12.5773 5.95297 12.6304ZM15.3487 14.8128C14.8957 15.1158 14.4193 15.4024 13.9234 15.6726C13.5914 15.8528 13.2556 16.0248 12.9198 16.1804C13.6148 16.4301 14.2942 16.6269 14.9424 16.7538C15.1103 16.1519 15.2471 15.4966 15.3487 14.8128ZM9.08473 14.9563C9.18232 15.5745 9.30742 16.164 9.45972 16.7127C10.0494 16.5857 10.6665 16.4058 11.2913 16.1765C10.9555 16.0209 10.6196 15.8489 10.2877 15.6687C9.87373 15.4435 9.47133 15.206 9.08473 14.9563ZM12.1034 8.14673C11.5919 8.36376 11.0763 8.61355 10.5647 8.89197C10.0102 9.19498 9.47905 9.51852 8.9792 9.86245C8.90501 10.5503 8.86616 11.2669 8.86616 11.9998C8.86616 12.7327 8.90502 13.4493 8.9792 14.1371C9.47902 14.481 10.0102 14.8046 10.5647 15.1076C11.0762 15.386 11.5919 15.6358 12.1034 15.8528C12.615 15.6358 13.1306 15.386 13.6422 15.1076C14.2787 14.7637 14.884 14.3829 15.4463 13.9858C15.5126 13.3429 15.5439 12.6754 15.5439 11.9998C15.5439 11.3202 15.5087 10.657 15.4463 10.0142C14.8839 9.61702 14.2788 9.24004 13.6422 8.89197C13.1306 8.61355 12.615 8.36375 12.1034 8.14673ZM8.32723 10.3335C7.63216 10.8616 7.00725 11.4266 6.48397 11.9998C7.00727 12.573 7.62822 13.1383 8.32723 13.6665C8.28431 13.1219 8.26091 12.5649 8.26091 11.9998C8.26091 11.4348 8.28431 10.878 8.32723 10.3335ZM16.0986 10.497C16.1338 10.9884 16.1533 11.4921 16.1533 11.9998C16.1533 12.5075 16.1338 13.0112 16.0986 13.5025C16.7078 13.0194 17.2585 12.5157 17.7271 11.9998C17.2585 11.4839 16.7079 10.9802 16.0986 10.497ZM14.9424 7.25016C14.2942 7.37713 13.6148 7.56972 12.9198 7.82353C13.2556 7.97914 13.5914 8.15119 13.9234 8.33129C14.4154 8.60156 14.8957 8.88817 15.3487 9.19112C15.251 8.50735 15.1142 7.85619 14.9424 7.25016ZM9.45972 7.29127C9.30353 7.8399 9.17844 8.42946 9.08473 9.04767C9.47133 8.79791 9.87373 8.56041 10.2877 8.33523C10.6196 8.15508 10.9555 7.98303 11.2913 7.82747C10.6665 7.59818 10.0494 7.41819 9.45972 7.29127ZM12.2052 3.63066C11.7952 3.63066 11.3889 3.83115 10.9985 4.22414C10.5962 4.63358 10.2292 5.22337 9.90896 5.98491C9.81525 6.2101 9.72526 6.44354 9.64326 6.68511C10.432 6.86117 11.2639 7.12317 12.1034 7.46709C13.0094 7.09448 13.9039 6.81597 14.7513 6.644C14.6733 6.41476 14.5913 6.19369 14.5015 5.98491C14.1852 5.22741 13.8177 4.6336 13.4115 4.22414C13.0212 3.83123 12.6152 3.63072 12.2052 3.63066Z" fill="#1C449C"/>
<path d="M14.3292 18.1826C14.5714 18.1826 14.7746 18.2688 14.9386 18.4489C15.1065 18.6249 15.1926 18.8378 15.1927 19.0875C15.1927 19.3373 15.1066 19.5504 14.9386 19.7264C14.7746 19.9066 14.5713 19.9967 14.3292 19.9967C14.0911 19.9967 13.8881 19.9065 13.7202 19.7264C13.5523 19.5545 13.4666 19.3414 13.4666 19.0875C13.4666 18.8378 13.5523 18.6249 13.7202 18.4489C13.8881 18.2729 14.0911 18.1826 14.3292 18.1826Z" fill="#1C449C"/>
<path d="M19.137 9.5843C19.379 9.58434 19.582 9.67418 19.746 9.85021C19.9139 10.0263 20 10.2394 20 10.4892C20 10.7389 19.9138 10.9517 19.746 11.1277C19.582 11.3078 19.379 11.3979 19.137 11.398C18.8988 11.398 18.6955 11.3078 18.5276 11.1277C18.3597 10.9558 18.274 10.7429 18.2739 10.4892C18.2739 10.2394 18.3597 10.0263 18.5276 9.85021C18.6955 9.67411 18.8988 9.5843 19.137 9.5843Z" fill="#1C449C"/>
<path d="M4.86344 9.14607C5.10155 9.14612 5.30458 9.23603 5.47244 9.41198C5.64037 9.58808 5.72647 9.80119 5.72647 10.051C5.72645 10.3007 5.64031 10.5134 5.47244 10.6895C5.30847 10.8655 5.10549 10.9556 4.86344 10.9598C4.62522 10.9598 4.42195 10.8697 4.25403 10.6895C4.08618 10.5175 4.00002 10.3048 4 10.051C4 9.80119 4.0861 9.58808 4.25403 9.41198C4.42194 9.23597 4.62525 9.14607 4.86344 9.14607Z" fill="#1C449C"/>
</svg>
