<svg width="24" height="24" viewBox="0 0 24 24" fill="none" xmlns="http://www.w3.org/2000/svg">
<path d="M13.8888 9.93471C14.4096 9.93471 14.8346 10.3457 14.8346 10.85C14.8345 11.3542 14.4096 11.7653 13.8888 11.7653H13.5123V11.7693C13.5124 16.1289 15.5557 17.5642 15.5557 17.5642H15.5515C15.8199 17.7659 15.9963 18.0801 15.9963 18.433H16V18.9061C16 18.9332 16.0003 18.9643 15.9963 18.9914C15.9963 19.0068 16 19.0184 16 19.0338V19.6351C16 19.8368 15.8319 20 15.6235 20H8.37648C8.16821 20 8 19.8367 8 19.6351V19.0338C8.00003 19.0184 8.00414 19.0068 8.00414 18.9914C8.00414 18.9642 8 18.9371 8 18.9061V18.433C8 18.08 8.17636 17.7659 8.44474 17.5642H8.44061C8.44061 17.5642 10.4876 16.1328 10.4877 11.7693V11.7653H10.107C9.58634 11.7652 9.16173 11.3542 9.16171 10.85C9.16171 10.3458 9.58632 9.93479 10.107 9.93471H13.8888Z" fill="#1C449C"/>
<path d="M13.6046 6.55998C13.7248 6.55999 13.837 6.61443 13.9091 6.7114C13.9812 6.80834 13.9973 6.92861 13.9612 7.04106L13.3961 8.70499C13.368 8.7786 13.2961 8.8291 13.2161 8.82916H10.7723C10.6882 8.82916 10.616 8.77868 10.5919 8.70499L10.0351 7.04106C9.99501 6.9286 10.0151 6.80835 10.0872 6.7114C10.1553 6.61831 10.2715 6.55998 10.3917 6.55998H13.6046Z" fill="#1C449C"/>
<path d="M11.994 4C12.5147 4 12.9392 4.41114 12.9393 4.91528C12.9393 5.41951 12.5148 5.83096 11.994 5.83096C11.4733 5.83092 11.0487 5.41948 11.0487 4.91528C11.0488 4.41117 11.4733 4.00005 11.994 4Z" fill="#1C449C"/>
</svg>
